/* XPM */
static char *Pixmap[] = {
"48 48 256 3",
"000 c #211818",
"001 c #291010",
"002 c #391008",
"003 c #292121",
"004 c #292131",
"005 c #312121",
"006 c #312929",
"007 c #392121",
"008 c #392129",
"009 c #392921",
"010 c #392929",
"011 c #392931",
"012 c #393131",
"013 c #393139",
"014 c #293142",
"015 c #39426B",
"016 c #421008",
"017 c #5A1008",
"018 c #422929",
"019 c #4A3129",
"020 c #423131",
"021 c #423939",
"022 c #4A3139",
"023 c #4A3931",
"024 c #4A3939",
"025 c #522921",
"026 c #523129",
"027 c #5A3129",
"028 c #523931",
"029 c #523939",
"030 c #5E3535",
"031 c #5A3931",
"032 c #631008",
"033 c #633929",
"034 c #673535",
"035 c #633931",
"036 c #6B3931",
"037 c #773D29",
"038 c #4A3942",
"039 c #5A4239",
"040 c #6B4239",
"041 c #7B4229",
"042 c #734231",
"043 c #734239",
"044 c #7B4231",
"045 c #7B4239",
"046 c #7B4A31",
"047 c #7B4A39",
"048 c #7B5239",
"049 c #444A5D",
"050 c #524242",
"051 c #5A4444",
"052 c #5A4A4A",
"053 c #52525A",
"054 c #5A5252",
"055 c #5E5A6F",
"056 c #674A4A",
"057 c #6B4242",
"058 c #6B4A42",
"059 c #635252",
"060 c #605A5D",
"061 c #6B5A5A",
"062 c #7B4A42",
"063 c #7B4A4A",
"064 c #755A52",
"065 c #6B5A63",
"066 c #6B6367",
"067 c #6F6767",
"068 c #736B63",
"069 c #736B6B",
"070 c #736B73",
"071 c #7B736B",
"072 c Gray45",
"073 c #7B7373",
"074 c #7B737B",
"075 c #7B7B7B",
"076 c #525E8C",
"077 c #7E6DA4",
"078 c #7975C1",
"079 c #7884AF",
"080 c #7B89C7",
"081 c #7784DE",
"082 c #7B8EDE",
"083 c #7391F1",
"084 c #7394FF",
"085 c #739CFF",
"086 c #7F9CFB",
"087 c #8C2108",
"088 c #842110",
"089 c #8C391C",
"090 c #9C260D",
"091 c #9A3710",
"092 c #A6291E",
"093 c #B52118",
"094 c #BD2918",
"095 c #A32E31",
"096 c #8C3142",
"097 c #99394D",
"098 c #844229",
"099 c #8C4229",
"100 c #844A31",
"101 c #844A39",
"102 c #8C4231",
"103 c #8C4A31",
"104 c #8C4A39",
"105 c #845231",
"106 c #8C5239",
"107 c #944A39",
"108 c #9A5837",
"109 c #AA4408",
"110 c #B74F10",
"111 c #A34A24",
"112 c #A34B32",
"113 c #A55736",
"114 c #B55A24",
"115 c #B35D35",
"116 c #845242",
"117 c #84564A",
"118 c #8C5242",
"119 c #895A4A",
"120 c #9D4E4D",
"121 c #88566B",
"122 c #84635A",
"123 c #8C6356",
"124 c #9F6658",
"125 c #806B6D",
"126 c #847B7B",
"127 c #9F736B",
"128 c #B7775C",
"129 c #C82E18",
"130 c #CE3D21",
"131 c #C14828",
"132 c #D64D24",
"133 c #C7651C",
"134 c #D4731C",
"135 c #C36731",
"136 c #C36039",
"137 c #C66B39",
"138 c #DE7022",
"139 c #DB7E2E",
"140 c #D27135",
"141 c #ED7429",
"142 c #895F81",
"143 c #B78373",
"144 c #E8862F",
"145 c #F98931",
"146 c #FF9431",
"147 c #C3895A",
"148 c #D88553",
"149 c #C69C6B",
"150 c #848484",
"151 c #8C8484",
"152 c Gray55",
"153 c #908888",
"154 c #998986",
"155 c #948C90",
"156 c #9C949C",
"157 c #9C84B5",
"158 c #A6878C",
"159 c #A59C9C",
"160 c #AC9992",
"161 c #AA9F9F",
"162 c #BB8A86",
"163 c #B29A96",
"164 c #B59C9C",
"165 c #AD98B5",
"166 c #B9A59C",
"167 c #A9A5A5",
"168 c #ADA9A9",
"169 c Gray68",
"170 c #ADA5BD",
"171 c #BAAAAA",
"172 c Gray71",
"173 c #BDB5B5",
"174 c #BDB5BD",
"175 c Gray74",
"176 c #949CC6",
"177 c #849CEF",
"178 c #84A5FF",
"179 c #99ACE3",
"180 c #90ABFD",
"181 c #94B5FF",
"182 c #9CB5FF",
"183 c #A5ADC6",
"184 c #BDBDD6",
"185 c #A7BDF1",
"186 c #A9BDFF",
"187 c #BDC1C6",
"188 c #B3C6F9",
"189 c #B5CEFF",
"190 c #BDCEFF",
"191 c #C6AFA7",
"192 c #C6B5B5",
"193 c #C6BDB5",
"194 c #C6BDBD",
"195 c #CEB9B5",
"196 c #D6B1AD",
"197 c #D8BEBD",
"198 c #C6B5C6",
"199 c #CAC1BD",
"200 c #C6C6C6",
"201 c #CEC8C8",
"202 c #CECECE",
"203 c #CECED6",
"204 c #DACAC6",
"205 c #DECECE",
"206 c #D6D2CE",
"207 c Gray84",
"208 c #DED6D6",
"209 c #C6CEEF",
"210 c #C6CEFF",
"211 c #C6D6FF",
"212 c #CEDEFF",
"213 c #D3D8EF",
"214 c #D6DEFF",
"215 c #D6E7FF",
"216 c #DEE7FF",
"217 c #E2D6CE",
"218 c #E2DADA",
"219 c #E7DEDA",
"220 c #EFE7DE",
"221 c #E7E7E7",
"222 c #EFE7E7",
"223 c #EFEFE7",
"224 c #EFEFEF",
"225 c #E7E7FB",
"226 c #E7EFFF",
"227 c #EFEFF7",
"228 c #EFEFFF",
"229 c #EFF7FF",
"230 c #F7F7FF",
"231 c #F7FFFF",
"232 c black s BgColor",
"233 c black",
"234 c black",
"235 c black",
"236 c black",
"237 c black",
"238 c black",
"239 c black",
"240 c black",
"241 c black",
"242 c black",
"243 c black",
"244 c black",
"245 c black",
"246 c black",
"247 c black",
"248 c black",
"249 c black",
"250 c black",
"251 c black",
"252 c black",
"253 c black",
"254 c black",
"255 c black",
"232232232232232232232232232232232232232232232232232232232232232232232232232232232232232232232232232232232232232232232232232232232232232232232232",
"232232232191149149149149149143143143143143143143143206232232232232232232232232232232232232232149149149149149149149149149149149143128191232232232",
"232232232232137140140135135115136136137137137140140143232232232232232232232232232232232232162140139139144144144139139144139140135137206232232232",
"232232232232164111113113108108113113108108115137137137206232232232232232232232232232232207139139140140140140140140137140140140140191232232232232",
"232232232232232127100105106108113113113113115135137140147232232232232232232232232232232166139139137137137137136136115115137135128232232232232232",
"232232232232232206046046047101106106106106106108108113115192232232232232232232232232201135137136136115113108108108108108108108207232232232232232",
"232232232232232232160046047047047047047047048062047047101123232232232232232232232232127100101106106106100047101101101101103154232232232232232232",
"232232232232232232232123044047047047101047101062101048101098158232232232232232232207062047047047047045042046047047101100119232232232232232232232",
"232232232232232232232173044046047047047047101101101062047046117232232232232232232122042042042044042116123117041103107112192232232232232232232232",
"232232232232232232232232154041047047047047062062047047047044045154232232232232175042119123123117123166197191127108111127232232232232232232232232",
"232232232232232232232232232062047047047047047047047046044116160191172200232232122123205218208204208219219222217128106232232232232232232232232232",
"232232232232232232232232232168046047047047047047116117062158195204193175175168127204222222222222222221220219204143154232232232232232232232232232",
"232232232232232232232232232232127098101101104104127143158166166191197173173192223223222224224222222222222218217191232232232232232232232232232232",
"232232232232232232232232232232207119103106104124162166192195191191197201200219224224224223223224223222208217217202187200232232232232232232232232",
"232232232232232232232232232232232161099100119143166192204197195195197128131136148143162196196197204219204204206200201200175175175232232232232232",
"232232232232232232232232232232232232122042117158192192195199204204143141146146146146145145144138131120192197200200200175175172172172232232232232",
"232232232232232232232232232207200202169064122160193192183179179179156149145146146146146146146144129094120173200200175172175175175172187232232232",
"232232232232232232232232232175175175175154122154163163184227214180181186179162145145146146145129097095094097172175172172200207200175201232232232",
"232232232232232232232232201175175175175169126125154160183227214180180182186165145145145145129097083078095094120169172200218207200202218232232232",
"232232232232232232232207172172175175175175168160173175184216212186188189210170141144141130095081085086078092093124172207218221221221221232232232",
"232232232232232175152156159167168168172173175194201195165212211190211212211162141141130095081084180180086078093093127175218221221221221232232232",
"232232232206156156167159155156159167168172175201197136158190188214216214162141141130092078085180182182182178077093093127200221221207221232232232",
"232232232200155169169167152150155159172172174192131132158186186226216162138138130092078084180182182186186186178142093092154221224221232232232232",
"232232232232167169169167155153156169173174171131132132132157180225164132132130093077084181186186186186188188188178142093095171232232232232232232",
"232232232172167167167167168172169172174173095130130130132132158163132132130093077084181186186188188188188190190190178121094095206232232232232232",
"232232172159167167156159172172169169172172120129130130130130130132132130094142083181188188188188190190190210210211190177121094095171232232232232",
"232200075075152156156167169168168167159169171120129130130130130130130094121083180188188189190190190210211211211212212210177096092056169232232232",
"232172072072150152155156155155156156155161167159120129129130130130094097083180189190190190210211211211212212212214214214188049050060156232232232",
"232175075069075150152150126072126150151155155153079097094129129094097083180190190210211211211212212212214214214215216216188049069167200232232232",
"232232167074073150126075126075070067069073067071079177097094129095082180190211211211211212212214214214215216216216216226185049155232232232232232",
"232232206075066072075069072072061061066061067071126182177097095081178210211211212212214214214214216216216216225226226226179053172232232232232232",
"232232232152060060066060060050018024065069073125073182186180083086190212212212214214214216213198163127113162226226228228179075232232232232232232",
"232232232167072066066066054009007028061067067067065182188188182186211214214214215216216124114133134134134162228228229229176150232232232232232232",
"232232232172150075075075051025028019018051059052051180188189190190212215216216216216225115139134134133133171229229230230080167232232232232232232",
"232232232175156152155068027033033026018018020010020076188190210211214216216225226226225113134133133133109197230230230229079175232232232232232232",
"232232232187159167155043037044035031026018010010012013080210211212214226226226226228227113110110110110091208230230231228076172232232232232232232",
"232232232202187172119102118118040030028020020012012021049179212214216226228228228229229120091109109109091222231232232225015060232232232232232232",
"232232232232232161112113108118058039050024020021024050024079190216216228229229229230230124109109109109099224230229212080004010201232232232232232",
"232232232232232124107118118063056056051050024024050029059202179214226229230230230230230127109091090087091135113055014003005010051232232232232232",
"232232232232143111043057057056056059052052050050050050172232213185228230230230230230222124091109133139134110091016005010020020010155232232232232",
"232232232206114044030039039051052052052052051050024073232232232209211230231232232225108134139133109087032016001003006020020020020011175232232232",
"232232232128089034031028029050051051050050029024050175232232232232185216214185176079063091088017002000000003006010011012011011012006060232232232",
"232232166089036035028023023024024024022020020010152232232218218218203176077075152167172154126038000005006010010010010010010010010011008155232232",
"232232205173173172172169168167167159156156156155172187175175175175175169159167169172175172169159152152152155155156156159159167167168169172232232",
"232232232232232232232232232232232232207202201200175172172172172172172172172172172172172172172172175175187200200201202207232232232232232232232232",
"232232232232232232232232232232232232232232232232232207207207207207206206206206206206206206207207207207232232232232232232232232232232232232232232",
"232232232232232232232232232232232232232232232232232232232232232232232232232232232232232232232232232232232232232232232232232232232232232232232232",
"232232232232232232232232232232232232232232232232232232232232232232232232232232232232232232232232232232232232232232232232232232232232232232232232"
};
