/* XPM */
static char *noname[] = {
/* width height ncolors chars_per_pixel */
"48 48 245 2",
/* colors */
"   c #8A6356",
" . c #625353",
" X c #A76041",
" o c #FAF5F2",
" O c #ED9F5E",
" + c #75645F",
" @ c #643A34",
" # c #C2BCBB",
" $ c #E3833D",
" % c #F1EBE9",
" & c #292928",
" * c #9E7B70",
" = c #8B5343",
" - c #49342D",
" ; c #3B3833",
" : c #884F40",
" > c #635A4D",
" , c #A85E45",
" < c #EC8E3F",
" 1 c #442C28",
" 2 c #C09384",
" 3 c #484339",
" 4 c #9C5743",
" 5 c #CBCACA",
" 6 c #DCC5BD",
" 7 c #918670",
" 8 c #C3C2C2",
" 9 c #3F2F30",
" 0 c #A39C9C",
" q c #90766F",
" w c #CF7340",
" e c #6A6764",
" r c #CB6C46",
" t c #D1BBB2",
" y c #9B847D",
" u c #3A2B2B",
" i c #91442E",
" p c #9B9894",
" a c #BBBABA",
" s c #F3AA63",
" d c #BF683A",
" f c #807F80",
" g c #BC6837",
" h c #B4B2B3",
" j c #E48E51",
" k c #51483E",
" l c #DA773A",
" z c #B0B0AF",
" x c #726B5B",
" c c #E9E0DD",
" v c #704D42",
" b c #7B5B50",
" n c #99583C",
" m c #3E251E",
" M c #797365",
" N c #756C6B",
" B c #94796F",
" V c #B3613B",
" C c #533B39",
" Z c #C26C43",
" A c #A55C37",
" S c #E48440",
" D c #DF9266",
" F c #A4948F",
" G c #6A6356",
" H c #949293",
" J c #443834",
" K c #8B513B",
" L c #484745",
" P c #D9D2D0",
" I c #AF8872",
" U c #B5836E",
" Y c #B89588",
" T c #755E5A",
" R c #848283",
" E c #AA7C6D",
" W c #C1693B",
" Q c #625C5B",
" ! c #794233",
" ~ c #8B816C",
" ^ c #DFD3CF",
" / c #EA9A63",
" ( c #F4F4F4",
" ) c #B5AAA9",
" _ c #693B2D",
" ` c #9A5A46",
" ' c #D2B5AB",
" ] c #DF8041",
" [ c #786F6D",
" { c #716E70",
" } c #625D54",
" | c #F09641",
".  c #F1A363",
".. c #ECE5E2",
".X c #685250",
".o c #D89772",
".O c #D5CBC8",
".+ c #D78E67",
".@ c #A25333",
".# c #BF7756",
".$ c #D4D4D4",
".% c #C2C0BF",
".& c #774744",
".* c #7A4A3D",
".= c #E3DDDC",
".- c #CB6D3A",
".; c #A77E73",
".: c #B25532",
".> c #F5B263",
"., c #935645",
".< c #634544",
".1 c #E17D3F",
".2 c #D6B1A1",
".3 c #93533B",
".4 c #DD8A5C",
".5 c #A5A09F",
".6 c #B36040",
".7 c #E89C6A",
".8 c #5A5752",
".9 c #E49866",
".0 c #777575",
".q c #5A5448",
".w c #775A54",
".e c #ECEBEB",
".r c #DE9C77",
".t c #EF933F",
".y c #E4D1CC",
".u c #C95C31",
".i c #7A5243",
".p c #7C645C",
".a c #E4E3E3",
".s c #C1ABA3",
".d c #945E4C",
".f c #847A67",
".g c #744A3D",
".h c #604B47",
".j c #AC6549",
".k c #827C7C",
".l c #7A4C46",
".z c #B15F3A",
".x c #35332D",
".c c #817371",
".v c #CEA495",
".b c #E49362",
".n c #BAB5B6",
".m c #887B7B",
".M c #726D62",
".N c #713B33",
".B c #724F4B",
".V c #894D3A",
".C c #C8BEBD",
".Z c #C7A79B",
".A c #706856",
".S c #935D47",
".D c #706656",
".F c #BE6A43",
".G c #E5945C",
".H c #B9B7B8",
".J c #A9A5A5",
".K c #A68F8B",
".L c #9A553A",
".P c #DC7A3C",
".I c #B1AFB0",
".U c #827778",
".Y c #E9BEA5",
".T c #864D3A",
".R c #AB5B3A",
".E c #F5B568",
".W c #EAA185",
".Q c #A9A7A8",
".! c #99928B",
".~ c #EFE9E6",
".^ c #BC633A",
"./ c #A19FA0",
".( c #EE9040",
".) c #999798",
"._ c #898585",
".` c #C8B6AF",
".' c #E6D8D3",
".] c #CAC6C8",
".[ c #8B8373",
".{ c #E0C2B6",
".} c #CD7151",
".| c #874F41",
"X  c #786D5D",
"X. c #81665C",
"XX c #73504B",
"Xo c #938C88",
"XO c #C2BEC0",
"X+ c #D4723A",
"X@ c #EB8A40",
"X# c #CFCED0",
"X$ c #F9D1A0",
"X% c #white s BgColor",
"X& c #7D5B4E",
"X* c #6A5C59",
"X= c #865343",
"X- c #87503A",
"X; c #B78473",
"X: c #E3CFC9",
"X> c #E59A68",
"X, c #A78277",
"X< c #885C52",
"X1 c #ACAAAA",
"X2 c #BFA79F",
"X3 c #A2593A",
"X4 c #96827A",
"X5 c #9B8175",
"X6 c #DE7B40",
"X7 c #A4A2A2",
"X8 c #CAC5C4",
"X9 c #D4AC99",
"X0 c #725146",
"Xq c #9A5D49",
"Xw c #8A4B36",
"Xe c #9C9A9A",
"Xr c #DC844B",
"Xt c #989696",
"Xy c #5B372C",
"Xu c #DBDBDB",
"Xi c #BDA096",
"Xp c #B68C78",
"Xa c #79705D",
"Xs c #D19A82",
"Xd c #8C7873",
"Xf c #B76037",
"Xg c #A7867D",
"Xh c #8C8A8A",
"Xj c #726360",
"Xk c #624D4D",
"Xl c #B67E64",
"Xz c #FCFCFB",
"Xx c #66413D",
"Xc c #817B75",
"Xv c #F8D4B5",
"Xb c #AB6E59",
"Xn c #CA703C",
"Xm c #CFB8B1",
"XM c #7F463B",
"XN c #956F61",
"XB c #684B42",
"XV c #834135",
"XC c #A25639",
"XZ c #82534B",
"XA c #554B43",
/* pixels */
"X%X%X%X%X%X%X%X%X%X%X%X%X%X%X%X%X%X%X%X%X%X%X%X%X%X%X%X%X%X%X%X%X%X%X%X%X%X%X%X%X%X%X%X%X%X%X%X%",
"X%X%X%X%X%X%X%X%X%X%X%X%X%X%X%X%X%X%X%X%X%X%X%X%X%X%X%X%X%X%X%X%X%X%X%X%X%X%X%X%X%X%X%X%X%X%X%X%",
"X%X%X%X$ s s.  O /.b D.9X>X>X> /.7X%X%X%X%X%X%X%X%X%X%X%X%X%X%. . .  s s.>.>.E.> s /.b.+X%X%X%X%",
"X%X%X%X%XrX+X+.- d d Z Z.F Z w S.P.rX%X%X%X%X%X%X%X%X%X%X%X%.4.P S <.t |.( S SX@X@.1 w.oX%X%X%X%",
"X%X%X%X%.{.R A A A.R V.6 X V WX+X+.PX%X%X%X%X%X%X%X%X%X%X%Xv.( < $ S S.1 ].P w.PX6.PXrX%X%X%X%X%",
"X%X%X%X%X%Xp K.3.3 A.z.z.z.z.^.-X+ l.GX%X%X%X%X%X%X%X%X%X% jX6.PX+.- W d.^.^ V d WXn.YX%X%X%X%X%",
"X%X%X%X%X%X%.SX-X-.V.V K K K.3.3 n n.z.2X%X%X%X%X%X%X%X%X9 V V g.^XfX3 nXCX3XC.LX3XlX%X%X%X%X%X%",
"X%X%X%X%X%X% t K.T.T.V.TX- K K : KX- :.dX%X%X%X%X%X%X%X%.d.|.TX-.3 K.V.V.V K K.3 `X%X%X%X%X%X%X%",
"X%X%X%X%X%X%X% I.VX-.V.T.VX- : =X0X*X*.w yX#X#.] aX1XtXj v.g.*XM.T.T.T.T K K.LXC.vX%X%X%X%X%X%X%",
"X%X%X%X%X%X%X%X%.d.V.V.T.TX-X= K b bX.X0XB._X1 h a.IXe +.pX..p.p.cXgXi E n.@.:.#X%X%X%X%X%X%X%X%",
"X%X%X%X%X%X%X%X%Xm.V.T.T.TX-.|X-X&.i.T   q.c.Q hX%X%X4X&.K.`X2.!.5.O.=.' '.j.RX%X%X%X%X%X%X%X%X%",
"X%X%X%X%X%X%X%X%X%.;X-.V :.V.T.T bX=.g * 0XoX1.e 5.CXd ) c #./ PX8.=.. c 6X; 2X%X%X%X%X%X%X%X%X%",
"X%X%X%X%X%X%X%X%X%X%.SX-.VX- K.,XNX, BX4 ).!.5.% h ) 0.OX#XtX# %.].... cX:.ZX%X%X%X%X%X%X%X%X%X%",
"X%X%X%X%X%X%X%X%X%X% '.L.L.L.LXbX5 YXo.! F N Q & & ; QXe.Q..X8 % 8.~.. c.' %XzX%X%X%X%X%X%X%X%X%",
"X%X%X%X%X%X%X%X%X%X%X% U.3.3Xq Y y [.8 ; & ;.8 & & ;.8 &.8 h cX#.% c.yX:..XzXzXz ( ( (X%X%X%X%X%",
"X%X%X%X%X%X%X%X%X%X%X%X% =.TX&XA.x & & & & ;.8 & L L & & & ; f.5 z c.'X: oXzXz ( ( ( ( (X%X%X%X%",
"X%X%X%X%X%X%X%X%X%X%X%X%X2X<XX.x.x & & & & 3 Q.8 L.x.x.x.x.x.x L L p ^ %XzXz ( (.e.e.e (X%X%X%X%",
"X%X%X%X%X%X%X%X%X% ( ( ( %.K T 3 ; ;.x.x &.x 3 ; ; 3 3 L LXAXA.q.q > M (Xz ( (.eX%X%X%X%X%X%X%X%",
"X%X%X%X%X%X%X%X%X% ( ( ( (Xu T ; 3 3 J ;.x.q > > G G G.A.D x xX X  M.[ ( ( (.eX%X%X%X%X%X%X%X%X%",
"X%X%X%X%X%X%X%X%.e ( ( ( (.e.! & & ; 3 3 J.DXaXa.f.f.f.f.f ~ ~ ~ ~ 7.! ( (.eX%X%X%X%X%X%X%X%X%X%",
"X%X%X%X%X%X%./XO a 5.$.]Xu.aX1 ; ; & & ; 3.f ~ ~ 7 ~.f.fX  x G >.qXA.M.e.a.=X%X%X%X%X%X%X%X%X%X%",
"X%X%X%X%.IXO # h.Q.n h.n aXO./.x.x ;.x & & >.qXAXA 3XAXAXA.q } } G xXo.a.a.=.=.aX%X%X%X%X%X%X%X%",
"X%X%X%X% h.] 8.H./.)X1 hXO 8 0 ; ;.x.x ; ;.q } }.M.M.f.f M.M x G } }Xc 5X#.=.a 8X%X%X%X%X%X%X%X%",
"X%X%X%X%.] 8.% a.Q.J h aX8 8 0 ;.x ; ;.x ; G x G G >.8.q.8 } e.M.M MXo.H 8X%X% aX%X%X%X%X%X%X%X%",
"X%X%X%Xu 5 a.H.HXO.%.HXO 8XOXe.x ;.x.x ; ;.8 e G M.M M M M M.M G } }XcX1XeXtXe aX%X%X%X%X%X%X%X%",
"X%X% #.H a.HX1 h.% a.H.H a.H.J ;.x ; ;.x ;.M.M G G } } }.8 } G.M.M MXcXt R.0 H.Q.H.JX7X%X%X%X%X%",
"X%X% f HX7 zX1 h h.I.I.Q 0.IXe.x ;.x.x ; ;.q G G N.M MXc M.M x G } }.q e { e.k H HXh HXeX%X%X%X%",
"X% h RXhXt H.JXe H H./Xe.! 0Xo ;.x ; ;.x ; x M x x } > } } } G.M M MXA m Q e e { {.0XhXe hX%X%X%",
"X%X%.).k H.).) HXh._._.k.k._ [.x ;.x.x ;.xXA } }.M.M.M.f M.M G G } } J m C { Q Q e.0.)X%X%X%X%X%",
"X%X%X% fXhXhXh._Xh f [ e N Q 3 3.x ; ;.x ; x M x x G }.8 } G e.M M M C m 1 Q { e {._X%X%X%X%X%X%",
"X%X%X% f e.0 f {.0 e k .X* J 3 k 3 ;.x ;.xXA } }.M.M.M M M.M.D }.8 } J 1 9 J._._ HX%X%X%X%X%X%X%",
"X%X%X%Xe { e { e Q 1 1 CXA 3 J J k 3 ;.x ;.M.f.M.D G }.8 } G e M M.MXA k C C .X7./X%X%X%X%X%X%X%",
"X%X%X%.I R.0.0.0.h 1 - C J ; 3 J ; 3 k J.xXA.8 } e M.M.M.M.D G.q k.q }.D C C CXhX%X%X%X%X%X%X%X%",
"X%X%X%.H.) H H.cXy _Xy - J 3 ; J 3 ; 3 k 3 x M x G.qXA kXA.q.q > G xXa.f > C CXkX%X%X%X%X%X%X%X%",
"X%X%X%X%.Q.QXe.*.N !Xy J J ; 3 ; J 3 ; J 3 k 3 k kXAXA.q >.D x x.A.D.A.AX  C J J.mX%X%X%X%X%X%X%",
"X%X%X%X%X%.HXNXw.3.3 3 ; J J ; 3 ; ; 3 J 3 3XAXA > > > } > > > >.DX .f ~ ~ > J J JX%X%X%X%X%X%X%",
"X%X%X%X%X%.sXCX3 ,.,Xx 3 ; J J ; 3 J ; 3 k.q.q.q.qXA.q > >.D xXaX  x.AXaXa.f C J JXAX%X%X%X%X%X%",
"X%X%X%X%X%.}.R 4 `XZXX.h 3 ; J 3 ; 3 J ; 3 k kXA > > G G > G > G.AXa.f 7 7.f > 9 9 9.UX%X%X%X%X%",
"X%X%X%X%.W.:XM.&.l.B.X.X.h 3 ; J 3 ; J kXA.q.q.q.q.q.q.q >.AXa M MXaXa x.f 7 7 9 9 9 JX%X%X%X%X%",
"X%X%X%X%.uXVXxXx.<.h.X.XXkXA 3 ; ; 3 ; J 3 k kXA.q >.D.A.A G.D.D x.f ~ ~ ~X .h 9 9 9 9XAX%X%X%X%",
"X%X%X% r i.N @ C.<.<.h.hXAXA C 3 ; J 3 kXA.q > > >.q.q > G.D M.f.f.D.h 3 9 9 9 9 9 9 9 9.UX%X%X%",
"X%X%Xs i.N @Xy C C C C C C J J J 3 J ; 3XAXAXAXA.q } GXa.fXo p . u u u u u u u 9 u u 9 9 9X%X%X%",
"X%X%X%X%X%X%X%X%X%.IX1.JX7./XeXtXtXA 3 kXA.q > G M.[.!.JX%X%X%.J H H H.)Xe 0./X7.JX1.IX%X%X%X%X%",
"X%X%X%X%X%X%X%X%X%X%X%X%X%X%X%X%X%X7 G > }Xc.!.JX%X%X%X%X%X%X%X%X%X%X%X%X%X%X%X%X%X%X%X%X%X%X%X%",
"X%X%X%X%X%X%X%X%X%X%X%X%X%X%X%X%X%X%X%X%X%X%X%X%X%X%X%X%X%X%X%X%X%X%X%X%X%X%X%X%X%X%X%X%X%X%X%X%",
"X%X%X%X%X%X%X%X%X%X%X%X%X%X%X%X%X%X%X%X%X%X%X%X%X%X%X%X%X%X%X%X%X%X%X%X%X%X%X%X%X%X%X%X%X%X%X%X%",
"X%X%X%X%X%X%X%X%X%X%X%X%X%X%X%X%X%X%X%X%X%X%X%X%X%X%X%X%X%X%X%X%X%X%X%X%X%X%X%X%X%X%X%X%X%X%X%X%",
"X%X%X%X%X%X%X%X%X%X%X%X%X%X%X%X%X%X%X%X%X%X%X%X%X%X%X%X%X%X%X%X%X%X%X%X%X%X%X%X%X%X%X%X%X%X%X%X%"
};
